<?xml version="1.0" encoding="utf-8"?>
<!-- Generator: Adobe Illustrator 25.2.0, SVG Export Plug-In . SVG Version: 6.00 Build 0)  -->
<svg version="1.1" id="Layer_1" xmlns="http://www.w3.org/2000/svg" xmlns:xlink="http://www.w3.org/1999/xlink" x="0px" y="0px"
	 viewBox="0 0 1080 487" style="enable-background:new 0 0 1080 487;" xml:space="preserve">
<style type="text/css">
	.st0{fill:#FFFFFF;}
</style>
<g>
	<g>
		<path class="st0" d="M452.5,70.6l-0.2,0.7c-1,2.7-2,5.4-3,8.1c-1,2.7-2,5.4-3,8.1c-1,2.7-2,5.4-3,8.1c-1,2.7-2,5.4-3,8.1l-0.1,0.3
			l-0.4,0c-0.3,0-0.6,0-0.9,0.1c-0.3,0-0.6,0-1,0.1c-0.3,0-0.6,0-1,0.1s-0.6,0-1,0.1l-0.7,0.1l0.2-0.7c0.2-2.6,0.5-5.3,0.7-7.9
			c0.2-2.6,0.5-5.2,0.7-7.9c0.2-2.6,0.5-5.2,0.7-7.9c0.2-2.6,0.5-5.2,0.7-7.9l0.1-0.4l0.4,0c1.1-0.1,2.2-0.2,3.3-0.3
			c1.1-0.1,2.2-0.2,3.3-0.3c1.1-0.1,2.2-0.2,3.3-0.3c1.1-0.1,2.2-0.2,3.3-0.2L452.5,70.6z"/>
	</g>
	<g>
		<path class="st0" d="M491,101.5c0.4,0.8,0.7,1.6,0.9,2.4c0.3,0.8,0.5,1.7,0.7,2.6c0.2,0.9,0.3,1.8,0.4,2.7
			c0.1,0.9,0.1,1.9,0.1,2.8c0,1.8-0.2,3.6-0.5,5.3c-0.3,1.7-0.8,3.3-1.4,4.9c-0.6,1.6-1.4,3.1-2.3,4.6c-0.9,1.5-2,2.8-3.2,4.1
			c-1.2,1.3-2.5,2.5-3.8,3.5c-1.3,1-2.8,1.9-4.2,2.6c-1.5,0.7-3,1.3-4.6,1.7c-1.6,0.4-3.3,0.7-5,0.8c-0.3,0-0.6,0-0.9,0
			c-0.3,0-0.5,0-0.8,0c-0.2,0-0.5,0-0.7,0c-0.2,0-0.4,0-0.6,0c-0.3,0-0.5,0-0.7,0c-0.2,0-0.4,0-0.5,0c-0.1,0-0.3,0-0.4-0.1
			c-0.1,0-0.2,0-0.3-0.1l-0.6-0.2l-0.2-0.1l0-0.3c0-1,0-2,0-3c0-1,0-2,0-3c0-1,0-2,0-3c0-1,0-2,0-3l0-0.4l0.4,0c0.4,0,0.9,0,1.3,0.1
			c0.4,0,0.9,0,1.3,0.1c0.4,0,0.9,0,1.3,0.1c0.4,0,0.9,0,1.3,0.1c0.8-0.1,1.6-0.2,2.4-0.4c0.8-0.2,1.5-0.5,2.3-0.9
			c0.8-0.4,1.5-0.8,2.2-1.3c0.7-0.5,1.4-1.1,2.1-1.7c0.7-0.6,1.2-1.3,1.7-2c0.5-0.7,0.9-1.4,1.2-2.2c0.3-0.8,0.6-1.6,0.7-2.4
			c0.2-0.8,0.2-1.7,0.2-2.6c0-0.6,0-1.2-0.1-1.7c-0.1-0.6-0.2-1.1-0.4-1.7c-0.2-0.5-0.3-1.1-0.6-1.6c-0.2-0.5-0.5-1-0.8-1.5
			c-0.3-0.5-0.7-1.1-1-1.6c-0.4-0.5-0.8-1-1.2-1.5c-0.4-0.5-0.8-1-1.3-1.5c-0.4-0.5-0.9-0.9-1.4-1.4c-0.5-0.5-1-0.9-1.5-1.4
			c-0.5-0.5-1-0.9-1.5-1.4c-0.5-0.5-1-0.9-1.5-1.4c-0.5-0.5-1-0.9-1.5-1.4c-0.5-0.5-1-1-1.5-1.6c-0.5-0.6-1-1.2-1.4-1.8
			c-0.4-0.6-0.9-1.3-1.3-2c-0.4-0.7-0.8-1.4-1.2-2.2c-0.4-0.8-0.7-1.6-1-2.4c-0.3-0.8-0.5-1.7-0.7-2.6c-0.2-0.9-0.3-1.8-0.4-2.7
			c-0.1-0.9-0.1-1.9-0.1-2.9c0-1.6,0.2-3.2,0.5-4.7c0.3-1.5,0.7-3,1.3-4.5c0.6-1.4,1.3-2.9,2.1-4.2c0.8-1.4,1.8-2.7,3-3.9
			c1.1-1.3,2.3-2.4,3.5-3.3c1.2-1,2.5-1.8,3.9-2.5c1.3-0.7,2.7-1.2,4.2-1.6c1.5-0.4,3-0.7,4.5-0.8c0.5,0,1,0,1.6,0.1s1,0,1.6,0.1
			c0.5,0,1,0,1.6,0.1s1,0.1,1.6,0.1l0.3,0l0,0.3c0,1,0,2,0,3c0,1,0,2,0,3c0,1,0,2,0,3c0,1,0,2,0,3l0,0.5l-0.4-0.1
			c-0.1,0-0.2,0-0.3-0.1s-0.2,0-0.3,0c-0.1,0-0.2,0-0.3,0c-0.1,0-0.2,0-0.3-0.1c-0.1,0-0.3-0.1-0.4-0.1c-0.1,0-0.3,0-0.5-0.1
			s-0.3,0-0.5,0c-0.2,0-0.3,0-0.5,0c-0.1,0-0.3,0-0.4,0c-0.1,0-0.3,0-0.4,0c-0.1,0-0.3,0-0.4,0c-0.1,0-0.3,0-0.4,0
			c-0.9,0.1-1.7,0.2-2.5,0.4c-0.8,0.2-1.6,0.4-2.3,0.7c-0.8,0.3-1.5,0.7-2.2,1.1c-0.7,0.4-1.3,0.9-2,1.4c-0.6,0.5-1.1,1.1-1.6,1.7
			c-0.4,0.6-0.8,1.3-1.1,2c-0.3,0.7-0.5,1.5-0.7,2.3c-0.1,0.8-0.2,1.7-0.2,2.7c0,0.5,0,1.1,0.1,1.6c0.1,0.5,0.2,1.1,0.4,1.6
			c0.2,0.5,0.4,1,0.6,1.5c0.2,0.5,0.5,1,0.8,1.5c0.3,0.5,0.7,1,1.1,1.5c0.4,0.5,0.8,1,1.2,1.5c0.4,0.5,0.8,1,1.3,1.4
			c0.4,0.5,0.9,0.9,1.4,1.4c0.5,0.5,1,0.9,1.5,1.4c0.5,0.5,1,0.9,1.5,1.4c0.5,0.5,1,0.9,1.5,1.4c0.5,0.5,1,0.9,1.5,1.4
			c0.5,0.5,1,1,1.5,1.6c0.5,0.6,1,1.2,1.4,1.8c0.4,0.6,0.9,1.3,1.3,2C490.2,100,490.6,100.7,491,101.5z"/>
	</g>
	<g>
		<path class="st0" d="M843.4,144.5c19.4,0.8,38.8,1.7,58.1,2.8c19.4,1.1,38.7,2.3,58.1,3.7c19.3,1.4,38.7,2.9,58,4.6
			c19.3,1.7,38.6,3.5,57.9,5.5c-0.5,2-0.9,3.9-1.4,5.9c-0.5,2-0.9,3.9-1.4,5.9c-0.5,2-0.9,3.9-1.4,5.9c-0.5,2-0.9,3.9-1.4,5.9
			c-20-2.1-39.9-4.1-59.9-5.8c-20-1.8-40-3.4-60-4.9c-20-1.5-40-2.7-60.1-3.9c-20-1.1-40.1-2.1-60.1-2.9
			c-30.6-1.2-61.3-2.1-91.9-2.5c-30.7-0.5-61.3-0.5-92-0.2c-30.7,0.3-61.4,1-92.1,2.1c-30.7,1.1-61.4,2.5-92.1,4.4
			c0-1.8,0-3.7,0-5.5c0-1.8,0-3.7,0-5.5c0-1.8,0-3.7,0-5.5c0-1.8,0-3.7,0-5.5c31.8-2,63.7-3.6,95.5-4.8c31.8-1.2,63.6-2,95.5-2.4
			c31.8-0.4,63.6-0.3,95.4,0.1C779.9,142.4,811.7,143.2,843.4,144.5z"/>
	</g>
	<g>
		<path class="st0" d="M427.8,10c0.1,1.7,0.2,3.5,0.2,5.2c0.1,1.7,0.1,3.4,0.1,5c0,1.7,0,3.3,0,5c0,1.6,0,3.3,0,4.9
			c-0.5,0.2-1,0.3-1.5,0.4c-0.5,0.1-1,0.2-1.4,0.3c-0.4,0.1-0.9,0.1-1.3,0.2c-0.4,0-0.8,0.1-1.3,0.1c-3.8,0.3-7.4,1.1-10.9,2.1
			c-3.5,1.1-6.9,2.5-10.1,4.2c-3.2,1.8-6.3,3.9-9.3,6.3c-3,2.5-5.8,5.3-8.4,8.4c-2.7,3.2-5,6.5-7,9.9c-2,3.5-3.7,7.1-5.1,10.8
			c-1.4,3.7-2.4,7.6-3.1,11.6c-0.7,4-1.1,8.2-1.1,12.4c0,3.6,0.2,7.1,0.6,10.5c0.4,3.4,1.1,6.7,2.1,9.8c0.9,3.1,2.1,6.2,3.5,9.1
			c1.4,2.9,3.1,5.7,5,8.3c1.9,2.6,3.9,4.9,6,7c2.1,2.1,4.4,4,6.8,5.6c2.4,1.6,4.9,3,7.6,4.2c2.6,1.1,5.4,2.1,8.3,2.7
			c0-5,0.1-10,0.1-15c0-5,0.1-10,0.1-15c0-5,0.1-10,0.1-15c0.1-5,0.1-10,0.2-15c-1.3,0.1-2.5,0.2-3.8,0.3c-1.3,0.1-2.5,0.2-3.8,0.3
			c-1.3,0.1-2.5,0.2-3.8,0.3s-2.5,0.2-3.8,0.3c-0.1-1.7-0.2-3.4-0.2-5c-0.1-1.6-0.1-3.3-0.1-4.9c0-1.6,0-3.2,0-4.8
			c0-1.6,0-3.2,0-4.8c3-0.4,5.9-0.8,8.8-1.1c2.9-0.3,5.8-0.6,8.7-0.9c2.9-0.3,5.7-0.5,8.6-0.8c2.9-0.3,5.7-0.5,8.5-0.7
			c0,8.4,0.1,16.8,0.1,25.1c0,8.4,0,16.7-0.1,25.1c0,8.3-0.1,16.7-0.2,25c-0.1,8.3-0.1,16.7-0.2,25c-0.6,0.2-1.1,0.3-1.6,0.4
			s-1,0.2-1.5,0.2c-0.5,0.1-0.9,0.1-1.4,0.1c-0.4,0-0.9,0.1-1.3,0.1c-0.7,0.1-1.5,0.1-2.2,0.1c-0.7,0-1.4,0.1-2.2,0.1
			c-0.7,0-1.4,0-2.1,0c-0.7,0-1.4,0-2.1-0.1c-4.3-0.2-8.5-0.7-12.5-1.6c-4-0.9-7.9-2.2-11.6-3.8c-3.7-1.6-7.3-3.6-10.7-6
			c-3.4-2.4-6.7-5.1-9.8-8.1c-0.7-0.7-1.3-1.4-2-2.1c-0.6-0.7-1.3-1.4-1.9-2.1c-0.6-0.7-1.2-1.4-1.8-2.2c-0.6-0.7-1.1-1.5-1.7-2.2
			c-0.8,0.7-1.7,1.4-2.5,2c-0.8,0.7-1.7,1.4-2.5,2c-0.8,0.7-1.7,1.4-2.5,2c-0.8,0.7-1.7,1.4-2.5,2c1.5,2,3.1,4,4.6,6
			c1.5,2,3,4,4.6,5.9c1.5,2,3,4,4.5,5.9c1.5,2,3,4,4.5,6c-2.3,0.2-4.7,0.4-7,0.6c-2.3,0.2-4.7,0.4-7,0.6c-2.3,0.2-4.7,0.4-7,0.6
			c-2.3,0.2-4.7,0.4-7,0.6c-0.7-0.9-1.5-1.8-2.2-2.8c-0.7-0.9-1.5-1.8-2.2-2.8c-0.7-0.9-1.5-1.8-2.2-2.8c-0.7-0.9-1.5-1.8-2.2-2.8
			c-0.2,0.2-0.5,0.4-0.7,0.6s-0.5,0.4-0.7,0.6c-0.2,0.2-0.5,0.4-0.7,0.6s-0.5,0.4-0.7,0.6c-1.8,1.7-3.8,3.2-5.9,4.6
			c-2.1,1.4-4.3,2.6-6.5,3.7c-2.3,1.1-4.7,1.9-7.1,2.6c-2.4,0.7-5,1.2-7.5,1.4c-0.5,0.1-1,0.1-1.5,0.1c-0.5,0-1,0.1-1.5,0.1
			c-0.5,0-1,0-1.5,0s-1,0-1.5,0c-5-0.2-9.6-1.3-13.8-3.1c-4.2-1.8-7.9-4.3-11-7.5c-3.1-3.1-5.6-6.8-7.2-11
			c-1.7-4.2-2.6-8.8-2.5-13.8c0-1.6,0.1-3.2,0.4-4.7c0.2-1.6,0.5-3.1,0.9-4.7c0.4-1.5,0.9-3,1.4-4.5c0.6-1.5,1.2-2.9,1.9-4.4
			c0.8-1.5,1.6-3,2.6-4.5c0.9-1.4,2-2.8,3.1-4.2c1.1-1.3,2.3-2.6,3.5-3.9c1.2-1.2,2.5-2.4,3.9-3.5c0.6-0.4,1.1-0.9,1.7-1.3
			c0.6-0.4,1.1-0.9,1.7-1.3c0.6-0.4,1.1-0.9,1.7-1.3c0.6-0.4,1.1-0.9,1.7-1.3l-0.8-0.9c-0.7-0.7-1.3-1.4-1.8-2
			c-0.5-0.6-1-1.2-1.4-1.7c-0.4-0.5-0.7-0.9-0.9-1.1c-0.2-0.3-0.3-0.4-0.4-0.5c-0.6-0.9-1.1-1.9-1.6-2.9c-0.4-1-0.8-2-1.1-3
			c-0.3-1-0.5-2.1-0.6-3.2c-0.1-1.1-0.2-2.2-0.2-3.3c0-0.9,0.1-1.7,0.2-2.5c0.1-0.8,0.2-1.7,0.4-2.5c0.2-0.8,0.4-1.6,0.7-2.5
			c0.3-0.8,0.6-1.6,0.9-2.4c0.3-0.8,0.7-1.6,1.1-2.3c0.4-0.8,0.8-1.5,1.3-2.2c0.5-0.7,1-1.4,1.5-2.1c0.5-0.7,1.1-1.3,1.7-2
			c0.1-0.1,0.2-0.2,0.3-0.3c0.1-0.1,0.2-0.2,0.3-0.3s0.2-0.2,0.3-0.3s0.2-0.2,0.3-0.3c0.5-0.5,1.1-1,1.6-1.4
			c0.6-0.5,1.1-0.9,1.7-1.3c0.6-0.4,1.2-0.8,1.8-1.2c0.6-0.4,1.3-0.8,1.9-1.1c0.8-0.4,1.6-0.8,2.4-1.2c0.8-0.3,1.7-0.7,2.5-0.9
			c0.9-0.3,1.7-0.5,2.6-0.7c0.9-0.2,1.8-0.3,2.7-0.4c0.5-0.1,0.9-0.1,1.3-0.1c0.4,0,0.9-0.1,1.3-0.1c0.4,0,0.8,0,1.2,0
			c0.4,0,0.8,0,1.2,0c0.3,0,0.6,0,0.9,0.1c0.3,0,0.6,0.1,0.8,0.1c0.3,0,0.5,0.1,0.8,0.1c0.3,0,0.5,0.1,0.8,0.2
			c0.6,0.1,1.1,0.3,1.6,0.5c0.5,0.2,1.1,0.4,1.6,0.6c0.5,0.2,1,0.4,1.5,0.7c0.5,0.2,0.9,0.5,1.4,0.8c0.5,0.3,0.9,0.6,1.3,0.9
			c0.4,0.3,0.9,0.7,1.3,1c0.4,0.4,0.8,0.7,1.2,1.1c0.4,0.4,0.8,0.8,1.2,1.2c0.4,0.4,0.8,0.8,1.2,1.3c0.4,0.4,0.8,0.9,1.3,1.3
			c0.4,0.4,0.9,0.9,1.3,1.3c0.5,0.4,0.9,0.9,1.4,1.3c-0.3,0.4-0.6,0.7-0.9,1.1c-0.3,0.3-0.6,0.7-1,1c-0.3,0.3-0.7,0.7-1,1
			s-0.7,0.6-1,0.9c-0.4-0.4-0.7-0.8-1-1.2c-0.3-0.4-0.7-0.8-1-1.1c-0.3-0.4-0.7-0.7-1-1.1c-0.3-0.4-0.7-0.7-1.1-1.1
			c-0.4-0.3-0.7-0.7-1.1-1c-0.4-0.3-0.8-0.6-1.1-1c-0.4-0.3-0.8-0.6-1.2-0.9c-0.4-0.3-0.8-0.6-1.2-0.8c-0.4-0.3-0.8-0.5-1.3-0.7
			c-0.4-0.2-0.9-0.5-1.3-0.6s-0.9-0.4-1.4-0.5c-0.5-0.2-1-0.3-1.5-0.4c-0.3-0.1-0.6-0.2-0.9-0.2c-0.3-0.1-0.6-0.1-0.9-0.2
			s-0.6-0.1-0.9-0.1c-0.3,0-0.6,0-0.9-0.1c-0.2,0-0.4,0-0.6,0c-0.2,0-0.4,0-0.6,0s-0.4,0-0.6,0s-0.4,0-0.6,0.1
			c-0.7,0.1-1.4,0.2-2.1,0.4c-0.7,0.2-1.4,0.3-2.1,0.5s-1.4,0.5-2,0.7c-0.7,0.3-1.3,0.6-2,0.9c-0.5,0.3-1.1,0.6-1.6,0.9
			c-0.5,0.3-1,0.6-1.5,1c-0.5,0.3-0.9,0.7-1.4,1.1c-0.5,0.4-0.9,0.8-1.3,1.2c4.8,6.2,9.5,12.4,14.3,18.6c4.8,6.2,9.6,12.5,14.3,18.8
			c4.8,6.3,9.6,12.6,14.3,19c4.8,6.4,9.6,12.7,14.4,19.2c0.8-0.7,1.7-1.4,2.5-2.1c0.8-0.7,1.7-1.4,2.5-2.1c0.8-0.7,1.7-1.4,2.5-2.1
			c0.8-0.7,1.7-1.4,2.5-2.1c-1.9-3-3.5-6.1-4.9-9.4c-1.4-3.3-2.6-6.7-3.5-10.2c-0.9-3.5-1.6-7.2-2.1-11c-0.4-3.8-0.6-7.7-0.6-11.8
			c0.1-5.6,0.6-11.1,1.6-16.4c1-5.3,2.4-10.5,4.3-15.4c1.9-5,4.2-9.8,7-14.4c2.8-4.6,6-9.1,9.7-13.4c3.7-4.3,7.6-8.1,11.7-11.5
			c4.1-3.4,8.4-6.2,12.9-8.7c4.5-2.4,9.1-4.4,14-5.8c4.8-1.5,9.8-2.5,15-3c0.4,0,0.8-0.1,1.3-0.1s0.8-0.1,1.2-0.1
			c0.4,0,0.8-0.1,1.2-0.1S427.4,10,427.8,10z M307.3,177.6c2.6-0.5,5.1-1.5,7.6-2.7c2.5-1.2,4.8-2.7,6.8-4.1c2-1.4,3.7-2.8,5-3.8
			c1.2-1,2-1.8,2.2-1.9c-3.3-4.4-6.6-8.8-9.8-13.1c-3.3-4.4-6.6-8.7-9.8-13c-3.3-4.3-6.5-8.6-9.8-12.9c-3.3-4.3-6.5-8.6-9.8-12.8
			c-0.6,0.4-1.2,0.8-1.8,1.3c-0.6,0.4-1.2,0.9-1.8,1.3c-0.6,0.4-1.2,0.9-1.8,1.3c-0.6,0.4-1.2,0.9-1.8,1.3c-1.1,0.9-2.1,1.8-3.1,2.7
			c-1,1-1.9,2-2.8,3c-0.9,1-1.7,2.1-2.5,3.2c-0.8,1.1-1.5,2.3-2.2,3.5c3,3.8,5.9,7.7,8.9,11.6c3,3.9,5.9,7.7,8.9,11.6
			c3,3.9,5.9,7.8,8.9,11.7C301.4,169.8,304.4,173.7,307.3,177.6"/>
	</g>
	<g>
		<path class="st0" d="M281.5,26.6l0,0.5c0,1.5,0,3.1-0.1,4.6c0,1.5,0,3.1-0.1,4.6c0,1.5,0,3.1-0.1,4.6c0,1.6,0,3.1-0.1,4.7l0,0.5
			l-0.5,0c-2.8,0.4-5.5,0.7-8.3,1.1c-2.8,0.4-5.5,0.7-8.3,1.1c-2.8,0.4-5.5,0.8-8.3,1.1c-2.8,0.4-5.5,0.8-8.3,1.2
			c0,3.5-0.1,6.9-0.1,10.4c-0.1,3.5-0.1,6.9-0.2,10.4c-0.1,3.5-0.1,6.9-0.2,10.4c-0.1,3.5-0.1,6.9-0.1,10.4c1.9-0.2,3.7-0.5,5.6-0.7
			c1.9-0.2,3.7-0.5,5.6-0.7c1.9-0.2,3.7-0.5,5.6-0.7c1.9-0.2,3.7-0.5,5.6-0.7l0.5-0.1l0,0.5c0,1.6,0,3.1-0.1,4.7
			c0,1.6,0,3.1-0.1,4.7c0,1.6,0,3.1-0.1,4.7c0,1.6,0,3.1-0.1,4.7l0,0.5l-0.5,0.1c-1.1,0.1-2.2,0.3-3.3,0.4c-1.1,0.1-2.2,0.3-3.3,0.4
			c-1.1,0.1-2.2,0.3-3.3,0.4c-1.1,0.1-2.2,0.3-3.3,0.4c-0.7,0.1-1.5,0.2-2.2,0.3s-1.5,0.2-2.2,0.3c-0.7,0.1-1.5,0.2-2.2,0.3
			c-0.7,0.1-1.5,0.2-2.2,0.3c-0.1,6.5-0.2,12.9-0.3,19.4c-0.1,6.5-0.2,13-0.3,19.4c-0.1,6.5-0.2,13-0.3,19.5
			c-0.1,6.5-0.2,13-0.3,19.5l0,0.5l-0.5,0c-1.6,0.2-3.1,0.4-4.7,0.6c-1.6,0.2-3.1,0.4-4.7,0.6c-1.6,0.2-3.1,0.4-4.7,0.6
			c-1.6,0.2-3.1,0.4-4.7,0.6l-0.5,0l0-0.5c0.2-13.2,0.4-26.3,0.6-39.4c0.2-13.1,0.4-26.2,0.6-39.3c0.2-13.1,0.4-26.2,0.6-39.3
			c0.2-13.1,0.4-26.1,0.6-39.2l0-0.5l0.5,0c4.3-0.6,8.7-1.3,13-1.9c4.3-0.6,8.7-1.3,13-1.9c4.3-0.6,8.7-1.2,13-1.8
			c4.3-0.6,8.7-1.2,13-1.8L281.5,26.6z"/>
	</g>
	<g>
		<path class="st0" d="M211,36.8l0,0.5c-0.1,8.7-0.3,17.5-0.4,26.2c-0.1,8.8-0.3,17.5-0.4,26.3c-0.1,8.8-0.3,17.5-0.4,26.3
			c-0.1,8.8-0.3,17.6-0.4,26.3c-0.1,3.5-0.4,7-1.1,10.4c-0.7,3.4-1.6,6.7-2.9,9.9c-1.3,3.2-2.8,6.4-4.7,9.4c-1.8,3.1-4,6-6.4,8.9
			c-2.5,2.9-5,5.4-7.7,7.7c-2.7,2.3-5.5,4.2-8.4,5.9c-2.9,1.7-6,3-9.1,4.1c-3.2,1.1-6.4,1.8-9.8,2.3c-0.8,0.1-1.5,0.2-2.3,0.3
			c-0.7,0.1-1.5,0.2-2.2,0.3c-0.7,0.1-1.4,0.2-2.1,0.3s-1.4,0.2-2.1,0.3c0-1.6,0.1-3.2,0.1-4.8c0-1.6,0.1-3.2,0.1-4.8
			c0-1.6,0.1-3.2,0.1-4.8c0-1.6,0.1-3.2,0.1-4.8c0.7-0.1,1.5-0.2,2.2-0.3s1.5-0.2,2.2-0.3c0.7-0.1,1.5-0.2,2.2-0.3
			c0.7-0.1,1.5-0.2,2.2-0.3c2.1-0.3,4-0.8,5.9-1.4c1.9-0.7,3.7-1.5,5.5-2.6c1.8-1,3.4-2.3,5-3.7c1.6-1.4,3.1-3,4.5-4.8
			c1.4-1.8,2.7-3.6,3.8-5.5c1.1-1.9,2-3.8,2.7-5.8c0.7-2,1.3-4,1.7-6.1c0.4-2.1,0.6-4.2,0.6-6.3c0.1-8.8,0.3-17.6,0.4-26.3
			c0.1-8.8,0.3-17.5,0.4-26.3c0.1-8.8,0.3-17.5,0.4-26.3c0.1-8.7,0.3-17.5,0.4-26.2l0-0.4l0.5-0.1c1.6-0.2,3.1-0.5,4.7-0.7
			c1.5-0.2,3.1-0.5,4.6-0.7c1.5-0.2,3.1-0.5,4.6-0.7c1.5-0.2,3.1-0.5,4.6-0.7L211,36.8z"/>
	</g>
	<g>
		<path class="st0" d="M789.3,179c0.1,13,0.2,26,0.3,39c0.1,13,0.2,26.1,0.3,39.1c0.1,13.1,0.2,26.1,0.3,39.2
			c0.1,13.1,0.2,26.2,0.3,39.3c0,5.3-0.3,10.5-1.1,15.4c-0.8,4.9-1.9,9.7-3.5,14.2c-1.6,4.5-3.5,8.9-5.9,13
			c-2.4,4.2-5.1,8.1-8.2,11.9c-3.1,3.7-6.4,6.9-9.8,9.6c-3.4,2.7-7,5-10.8,6.7c-3.8,1.8-7.7,3-11.8,3.8c-4.1,0.8-8.4,1.1-12.9,0.9
			c-0.1,0-0.1,0-0.2,0s-0.1,0-0.2,0c-0.1,0-0.1,0-0.2,0c-0.1,0-0.1,0-0.2,0c-4.5-0.2-8.8-0.9-13-2.1c-4.2-1.2-8.2-2.8-12-4.9
			c-3.8-2.1-7.5-4.7-11.1-7.7c-3.5-3-6.9-6.5-10.1-10.5c-3.2-4-6-8.1-8.5-12.4c-2.4-4.3-4.4-8.7-6-13.3c-1.6-4.6-2.8-9.4-3.6-14.3
			c-0.8-4.9-1.2-10-1.2-15.3c0-10.6-0.1-21.2-0.1-31.8c0-10.6-0.1-21.1-0.1-31.7c0-10.6-0.1-21.1-0.1-31.6c0-10.5-0.1-21.1-0.1-31.6
			c-2.9,0-5.8,0-8.6,0c-2.9,0-5.8,0-8.6,0c-2.9,0-5.8,0-8.6,0c-2.9,0-5.8,0-8.6,0.1c0,16.6,0.1,33.2,0.1,49.8
			c0,16.6,0.1,33.3,0.1,50c0,16.7,0.1,33.4,0.1,50.1c0,16.7,0.1,33.5,0.1,50.3c-2.1,0-4.2-0.1-6.3-0.1s-4.2-0.1-6.3-0.1
			s-4.2-0.1-6.3-0.1c-2.1,0-4.2-0.1-6.3-0.1c0-16.7,0-33.4-0.1-50.1c0-16.7,0-33.3,0-49.9c0-16.6,0-33.2,0-49.8
			c0-16.6,0-33.1-0.1-49.6c-2.8,0-5.6,0.1-8.5,0.1c-2.8,0.1-5.6,0.1-8.5,0.2c-2.8,0.1-5.6,0.1-8.5,0.2c-2.8,0.1-5.6,0.1-8.5,0.2
			c0-2.2,0-4.4,0-6.6c0-2.2,0-4.4,0-6.6c0-2.2,0-4.4,0-6.6c0-2.2,0-4.4,0-6.6c7.8-0.2,15.5-0.4,23.3-0.6c7.8-0.2,15.5-0.3,23.3-0.5
			c7.8-0.1,15.5-0.2,23.3-0.3c7.8-0.1,15.5-0.1,23.3-0.2c2.1,0,4.1,0,6.2,0c2.1,0,4.1,0,6.2,0c2.1,0,4.1,0,6.2,0c2.1,0,4.1,0,6.2,0
			c0,12.8,0.1,25.6,0.1,38.4c0,12.8,0.1,25.6,0.1,38.4c0,12.8,0.1,25.7,0.1,38.5c0,12.9,0.1,25.7,0.1,38.6c0,3.4,0.3,6.7,0.8,9.9
			c0.5,3.2,1.3,6.3,2.3,9.3c1,3,2.3,5.8,3.8,8.6c1.5,2.8,3.3,5.4,5.3,8c2,2.6,4.1,4.8,6.3,6.8c2.2,1.9,4.5,3.6,6.8,4.9
			c2.4,1.3,4.8,2.4,7.4,3.1c2.6,0.7,5.2,1.2,7.9,1.3c2.6,0.1,5.2-0.1,7.7-0.6c2.5-0.5,4.9-1.4,7.2-2.5c2.3-1.1,4.6-2.6,6.7-4.4
			c2.2-1.8,4.3-3.9,6.3-6.3c2-2.4,3.8-5,5.3-7.6c1.5-2.7,2.8-5.5,3.8-8.4c1-2.9,1.8-5.9,2.2-9.1c0.5-3.1,0.7-6.4,0.7-9.8
			c-0.1-13.1-0.1-26.1-0.2-39.1c-0.1-13-0.1-26-0.2-39c-0.1-13-0.2-26-0.2-38.9c-0.1-13-0.2-25.9-0.2-38.9c2.1,0,4.1,0.1,6.2,0.2
			c2.1,0.1,4.1,0.1,6.2,0.2c2.1,0.1,4.1,0.1,6.2,0.2C785.2,178.9,787.3,179,789.3,179z"/>
	</g>
	<g>
		<path class="st0" d="M885.2,308.4c-1.8,3.1-3.8,6.1-5.9,8.7c-2.1,2.7-4.4,5.1-6.8,7.4c-2.4,2.2-5,4.2-7.7,6
			c-2.7,1.8-5.6,3.4-8.6,4.7c3.4,7,6.7,14.1,10.1,21.2c3.4,7.1,6.7,14.2,10.1,21.3c3.4,7.1,6.7,14.3,10.1,21.4
			c3.4,7.2,6.7,14.3,10.1,21.5c-2.3-0.2-4.6-0.4-6.9-0.7s-4.6-0.4-6.9-0.7c-2.3-0.2-4.6-0.4-6.9-0.6c-2.3-0.2-4.6-0.4-6.9-0.6
			c-3.8-7.7-7.6-15.5-11.4-23.1c-3.8-7.7-7.6-15.3-11.4-23c-3.8-7.6-7.6-15.3-11.3-22.8c-3.8-7.6-7.6-15.2-11.3-22.7
			c0.1,7.3,0.1,14.6,0.2,21.9c0.1,7.3,0.1,14.6,0.2,22c0.1,7.3,0.1,14.7,0.2,22c0.1,7.3,0.1,14.7,0.2,22c-2.1-0.2-4.2-0.3-6.2-0.5
			c-2.1-0.2-4.2-0.3-6.2-0.5c-2.1-0.2-4.2-0.3-6.2-0.5c-2.1-0.2-4.2-0.3-6.2-0.5c-0.1-19.6-0.3-39.1-0.4-58.6
			c-0.1-19.5-0.3-39-0.4-58.4c-0.1-19.4-0.3-38.8-0.4-58.2c-0.1-19.4-0.3-38.7-0.4-58c1.7,0.1,3.4,0.1,5.1,0.2
			c1.7,0.1,3.4,0.1,5.1,0.2s3.4,0.1,5.1,0.2c1.7,0.1,3.4,0.1,5.1,0.2c0.6,0,1.3,0.1,1.9,0.1c0.6,0,1.3,0.1,1.9,0.1
			c0.6,0,1.3,0.1,1.9,0.1s1.3,0.1,1.9,0.1c4.8,0.2,9.3,0.9,13.8,2c4.4,1.2,8.7,2.8,12.8,5c4.1,2.2,8,4.8,11.8,8
			c3.8,3.1,7.4,6.8,10.8,10.9c3.4,4.1,6.4,8.5,9,13c2.6,4.5,4.7,9.3,6.5,14.2c1.7,4.9,3.1,10,4,15.3c0.9,5.3,1.4,10.8,1.4,16.5
			c0,4-0.2,8-0.6,11.8c-0.4,3.8-1.1,7.5-2,11.1c-0.9,3.6-2,7.1-3.3,10.4C888.6,302,887,305.3,885.2,308.4z M827.8,314.8
			c2.8,0.1,5.5-0.1,8.2-0.6c2.6-0.5,5.2-1.4,7.6-2.5c2.4-1.2,4.8-2.6,7-4.4c2.2-1.8,4.4-3.9,6.5-6.3c2.1-2.5,4-5.1,5.5-8
			c1.6-2.8,2.9-5.8,3.9-8.9c1-3.1,1.8-6.4,2.3-9.8c0.5-3.4,0.7-7,0.7-10.7c0-3.7-0.3-7.3-0.9-10.8c-0.6-3.5-1.4-6.8-2.4-10
			c-1.1-3.2-2.4-6.3-4-9.3c-1.6-3-3.5-5.8-5.6-8.5c-2.1-2.7-4.3-5.1-6.7-7.2c-2.3-2.1-4.8-3.8-7.3-5.2c-2.5-1.4-5.2-2.5-7.9-3.3
			c-2.8-0.8-5.6-1.2-8.6-1.4c-0.3,0-0.6,0-0.8,0c-0.3,0-0.6,0-0.8,0c-0.3,0-0.6,0-0.8,0c-0.3,0-0.6,0-0.8,0
			c0.1,8.9,0.1,17.8,0.2,26.6c0.1,8.9,0.1,17.8,0.2,26.7c0.1,8.9,0.1,17.8,0.2,26.7c0.1,8.9,0.1,17.9,0.2,26.8c0.3,0,0.6,0,0.8,0
			c0.3,0,0.6,0,0.8,0c0.3,0,0.6,0,0.8,0.1s0.6,0,0.8,0.1c0.1,0,0.1,0,0.2,0c0.1,0,0.1,0,0.2,0c0.1,0,0.1,0,0.2,0
			C827.7,314.8,827.8,314.8,827.8,314.8"/>
	</g>
	<g>
		<path class="st0" d="M897.9,184.1c5.8,0.3,11.6,0.7,17.4,1.1c5.8,0.4,11.6,0.8,17.4,1.2s11.6,0.8,17.3,1.3
			c5.8,0.4,11.6,0.9,17.3,1.3c0,2.3,0.1,4.7,0.1,7c0,2.3,0.1,4.7,0.1,7c0,2.3,0.1,4.7,0.1,7c0,2.3,0,4.7,0.1,7
			c-3.7-0.3-7.5-0.6-11.2-0.9c-3.7-0.3-7.5-0.6-11.2-0.9c-3.7-0.3-7.4-0.6-11.2-0.9c-3.7-0.3-7.4-0.6-11.2-0.8
			c0.1,8.4,0.2,16.7,0.3,25.1c0.1,8.4,0.2,16.7,0.3,25.1c0.1,8.4,0.2,16.8,0.3,25.1c0.1,8.4,0.2,16.8,0.3,25.2
			c3.5,0.3,7,0.6,10.6,0.9c3.5,0.3,7,0.6,10.6,1c3.5,0.3,7,0.7,10.6,1c3.5,0.3,7,0.7,10.6,1c0,2.3,0.1,4.7,0.1,7
			c0,2.3,0.1,4.7,0.1,7.1c0,2.4,0.1,4.7,0.1,7.1c0,2.4,0.1,4.7,0.1,7.1c-3.5-0.4-7-0.7-10.6-1.1c-3.5-0.4-7-0.7-10.6-1.1
			c-3.5-0.3-7.1-0.7-10.6-1c-3.5-0.3-7.1-0.7-10.6-1c0.1,4.5,0.1,8.9,0.1,13.4c0,4.5,0.1,8.9,0.1,13.4c0,4.5,0.1,8.9,0.1,13.4
			c0,4.5,0.1,8.9,0.1,13.4c5.9,0.6,11.8,1.2,17.7,1.8c5.9,0.6,11.8,1.3,17.7,1.9c5.9,0.7,11.8,1.3,17.7,2c5.9,0.7,11.8,1.4,17.7,2.1
			c0,2.4,0,4.8,0.1,7.1c0,2.4,0.1,4.7,0.1,7.1c0,2.4,0.1,4.7,0.1,7.1c0,2.4,0.1,4.7,0.1,7.1c-8-1-16-2-24-2.9c-8-0.9-16-1.9-24-2.8
			c-8-0.9-16-1.8-24-2.6c-8-0.8-16-1.7-24-2.4c-0.2-19.9-0.4-39.8-0.6-59.6c-0.2-19.8-0.4-39.6-0.6-59.4
			c-0.2-19.7-0.4-39.5-0.6-59.2C898.3,223.4,898.1,203.7,897.9,184.1z"/>
	</g>
	<g>
		<path class="st0" d="M276.8,297.3c0,0.7,0.1,1.3,0.1,2c0,0.7,0,1.3,0.1,2c0,0.7,0,1.3,0,2c0,0.7,0,1.3,0,2
			c-0.1,7.4-0.8,14.6-2.1,21.5c-1.3,7-3.3,13.7-5.9,20.2c-2.6,6.5-5.9,12.8-9.7,18.9c-3.9,6.1-8.4,11.9-13.6,17.6
			c-5.2,5.6-10.6,10.7-16.3,15c-5.7,4.4-11.6,8.1-17.8,11.3c-6.2,3.1-12.7,5.7-19.4,7.6c-6.7,1.9-13.7,3.2-20.9,4
			c-2.2,0.2-4.4,0.4-6.6,0.7c-2.2,0.2-4.4,0.4-6.6,0.7c-2.2,0.2-4.4,0.5-6.6,0.7c-2.2,0.2-4.4,0.5-6.6,0.7
			c0.2-17.6,0.4-35.1,0.6-52.6c0.2-17.5,0.4-35,0.6-52.4c0.2-17.4,0.4-34.9,0.6-52.3c0.2-17.4,0.4-34.8,0.6-52.1
			c2.2-0.3,4.5-0.6,6.7-1c2.2-0.3,4.5-0.6,6.7-0.9c2.2-0.3,4.5-0.6,6.7-0.9c2.2-0.3,4.5-0.6,6.7-0.9c1.5-0.2,3-0.4,4.5-0.5
			c1.5-0.1,3-0.2,4.4-0.3c1.5-0.1,2.9-0.1,4.4-0.1s2.9,0,4.3,0.1c5.3,0.2,10.4,0.8,15.3,1.9c4.9,1.1,9.7,2.5,14.3,4.5
			c4.6,1.9,9.1,4.3,13.4,7c4.3,2.8,8.4,6,12.4,9.6c2,1.8,3.9,3.7,5.7,5.7c1.8,1.9,3.5,3.9,5.1,6c1.6,2.1,3.1,4.2,4.5,6.3
			c1.4,2.2,2.7,4.4,3.9,6.7c0.9,3.3,1.8,6.6,2.6,9.8c0.9,3.3,1.8,6.6,2.6,9.9c0.9,3.3,1.8,6.6,2.6,9.9
			C275,290.7,275.9,294,276.8,297.3z M226,368.1c3.6-4.3,6.8-8.7,9.6-13.4c2.7-4.6,5-9.5,6.9-14.5c1.8-5,3.2-10.2,4.2-15.6
			c0.9-5.4,1.4-10.9,1.5-16.6c0.1-5.7-0.4-11.1-1.2-16.2c-0.9-5.1-2.2-10-3.9-14.6c-1.8-4.6-4-8.9-6.6-13c-2.7-4.1-5.8-7.8-9.3-11.4
			c-2.8-2.8-5.8-5.3-9-7.4c-3.1-2.1-6.4-4-9.8-5.4c-3.4-1.5-6.9-2.6-10.6-3.4c-3.7-0.8-7.5-1.3-11.5-1.5c-1,0-2-0.1-3-0.1
			c-1,0-2.1,0-3.1,0.1s-2.1,0.1-3.1,0.2c-1.1,0.1-2.1,0.2-3.2,0.3c-0.1,13.4-0.3,26.8-0.4,40.2c-0.1,13.4-0.3,26.8-0.4,40.3
			c-0.1,13.4-0.3,26.9-0.4,40.4c-0.2,13.5-0.3,27-0.5,40.5c5.3-0.6,10.5-1.6,15.4-3c4.9-1.5,9.6-3.4,14.1-5.8
			c4.5-2.4,8.8-5.3,12.9-8.6C218.4,376.2,222.3,372.4,226,368.1"/>
	</g>
	<g>
		<path class="st0" d="M1043,191.1c0.4,0,0.9,0,1.3,0.1s0.9,0.1,1.3,0.1c0.4,0,0.9,0.1,1.3,0.1s0.9,0.1,1.3,0.1
			c1.7,0.3,3.7,0.5,5.6,0.8c2,0.3,4,0.6,5.8,0.9c1.8,0.3,3.5,0.6,4.9,0.8c1.4,0.2,2.4,0.5,2.9,0.6c-0.5,2.4-1,4.7-1.5,7.1
			c-0.5,2.4-1,4.7-1.5,7.1c-0.5,2.4-1,4.7-1.5,7.1c-0.5,2.4-1,4.7-1.5,7.1c-0.8-0.2-1.6-0.5-2.4-0.7c-0.8-0.2-1.7-0.4-2.5-0.6
			s-1.7-0.3-2.6-0.5s-1.7-0.2-2.6-0.3c-0.3,0-0.7-0.1-1-0.1c-0.3,0-0.7-0.1-1-0.1c-0.3,0-0.7,0-1-0.1c-0.3,0-0.7,0-1,0
			c-3.1-0.1-6.1,0-9.1,0.4c-3,0.4-5.8,1-8.6,1.8c-2.8,0.8-5.5,1.9-8.2,3.3c-2.6,1.3-5.2,2.9-7.7,4.7c-2.8,2.1-5.3,4.4-7.4,6.9
			c-2.1,2.5-3.9,5.3-5.3,8.4c-1.4,3-2.4,6.3-3.1,9.8c-0.7,3.5-1,7.2-0.9,11.2c0,2.4,0.2,4.8,0.6,7.3c0.4,2.4,0.9,4.8,1.6,7.2
			c0.7,2.4,1.5,4.8,2.6,7.1c1,2.4,2.2,4.7,3.5,7c1.3,2.2,2.6,4.4,4,6.6c1.4,2.2,2.9,4.3,4.4,6.4c1.5,2.1,3.1,4.2,4.7,6.2
			c1.6,2,3.3,4.1,5.1,6c1.8,2,3.5,4,5.3,6c1.8,2,3.5,4,5.3,6c1.8,2,3.5,4,5.3,6c1.8,2,3.5,4,5.3,6.1c1.8,2,3.4,4.1,5.1,6.4
			c1.6,2.2,3.2,4.5,4.7,6.9c1.5,2.4,2.9,4.9,4.3,7.5c1.4,2.6,2.7,5.3,3.9,8c1.2,2.7,2.3,5.5,3.2,8.3c0.9,2.8,1.7,5.7,2.3,8.7
			c0.6,2.9,1.1,5.9,1.5,8.9c0.3,3,0.5,6.1,0.6,9.2c0.1,5.1-0.3,10-1.1,14.7c-0.8,4.7-2.1,9.1-3.8,13.2c-1.7,4.2-3.9,8.1-6.5,11.7
			c-2.6,3.7-5.7,7.1-9.2,10.2c-3.1,2.8-6.4,5.1-9.8,7.2c-3.4,2-7,3.7-10.7,5c-3.7,1.3-7.6,2.2-11.5,2.8c-4,0.6-8.1,0.8-12.4,0.6
			c-0.6,0-1.2-0.1-1.8-0.1c-0.6,0-1.2-0.1-1.8-0.1c-0.6-0.1-1.2-0.1-1.8-0.2c-0.6-0.1-1.2-0.1-1.8-0.2c-1.8-0.2-3.1-0.3-4.2-0.5
			c-1.1-0.1-2-0.2-3-0.3s-2-0.2-3.3-0.4c-1.3-0.2-3-0.4-5.2-0.7c-26.7-3.4-53.4-6.5-80.1-9.3c-26.7-2.8-53.5-5.3-80.2-7.6
			c-26.8-2.2-53.5-4.2-80.3-5.8c-26.8-1.7-53.6-3-80.4-4.1c-26.1-1-52.2-1.8-78.3-2.3c-26.1-0.5-52.2-0.7-78.3-0.6
			c-26.1,0.1-52.2,0.4-78.3,1c-26.1,0.6-52.2,1.5-78.3,2.7c0.6-2.1,1.3-4.2,1.9-6.3c0.6-2.1,1.3-4.2,1.9-6.3
			c0.6-2.1,1.3-4.2,1.9-6.3c0.6-2.1,1.3-4.2,1.9-6.3c26.8-1.3,53.5-2.2,80.3-2.9c26.8-0.7,53.5-1.1,80.3-1.2
			c26.8-0.1,53.5,0.1,80.3,0.6c26.8,0.5,53.5,1.3,80.3,2.3c25.4,1,50.8,2.3,76.2,3.8c25.4,1.5,50.8,3.3,76.2,5.4
			c25.4,2.1,50.8,4.4,76.1,7c25.4,2.6,50.7,5.4,76,8.6c1.4,0.2,2.9,0.4,4.2,0.5c1.4,0.2,2.8,0.3,4.1,0.5c1.4,0.2,2.7,0.3,4.1,0.5
			c1.3,0.2,2.7,0.3,4,0.5c0.3,0,0.6,0.1,0.9,0.1c0.3,0,0.6,0.1,0.9,0.1c0.3,0,0.6,0,0.9,0.1c0.3,0,0.6,0,0.9,0
			c2.8,0.1,5.4-0.1,8-0.5c2.6-0.4,5-1.1,7.4-2.1c2.4-0.9,4.6-2.1,6.8-3.5c2.2-1.4,4.2-3,6.2-4.7c2.2-2,4.1-4.1,5.7-6.5
			c1.6-2.3,3-4.9,4.1-7.5c1.1-2.7,1.9-5.6,2.4-8.6c0.5-3,0.8-6.2,0.7-9.6c0-2.4-0.2-4.7-0.6-7.1c-0.4-2.4-0.9-4.7-1.6-7.1
			c-0.7-2.4-1.5-4.7-2.5-7.1c-1-2.3-2.2-4.7-3.5-7c-1.3-2.2-2.6-4.4-4.1-6.6c-1.4-2.2-2.9-4.3-4.5-6.5c-1.5-2.1-3.2-4.2-4.8-6.3
			c-1.7-2.1-3.4-4.1-5.2-6.1c-1.8-2-3.6-3.9-5.4-5.9c-1.8-2-3.6-3.9-5.4-5.9c-1.8-2-3.6-3.9-5.4-5.9c-1.8-2-3.6-3.9-5.4-5.9
			c-1.7-1.9-3.4-3.9-5.1-6c-1.6-2.1-3.2-4.3-4.7-6.6c-1.5-2.3-2.9-4.7-4.3-7.1c-1.4-2.5-2.6-5-3.9-7.6c-1.2-2.6-2.2-5.2-3.2-7.9
			c-0.9-2.7-1.7-5.4-2.3-8.2c-0.6-2.8-1.1-5.6-1.4-8.5c-0.3-2.9-0.5-5.8-0.5-8.7c-0.1-5.7,0.4-11.2,1.3-16.4
			c0.9-5.2,2.3-10.1,4.2-14.8c1.9-4.7,4.3-9,7.2-13.2c2.9-4.1,6.2-7.9,10.1-11.5c3.5-3.3,7.3-6.1,11.2-8.5c3.9-2.4,8-4.4,12.3-5.9
			c4.3-1.6,8.7-2.7,13.3-3.4C1033.3,191.1,1038.1,190.9,1043,191.1z"/>
	</g>
	<g>
		<path class="st0" d="M76,192.9c5.3,18.9,10.6,37.9,15.9,57c5.3,19.1,10.6,38.3,15.9,57.6c5.3,19.3,10.7,38.8,16,58.3
			c5.3,19.5,10.7,39.2,16,58.9c-2.3,0.2-4.6,0.5-6.9,0.8c-2.3,0.3-4.6,0.5-6.9,0.8c-2.3,0.3-4.6,0.5-6.9,0.8
			c-2.3,0.3-4.6,0.5-6.9,0.8c-1-3.5-2-6.9-2.9-10.4c-1-3.5-2-6.9-2.9-10.3c-1-3.4-2-6.9-2.9-10.3c-1-3.4-2-6.9-3-10.3
			c-4.5,0.6-9,1.1-13.5,1.7c-4.5,0.6-9,1.2-13.5,1.8c-4.5,0.6-9,1.2-13.5,1.8c-4.5,0.6-9,1.3-13.5,1.9c-1.2,3.7-2.4,7.4-3.5,11.1
			c-1.2,3.7-2.4,7.4-3.5,11.1c-1.2,3.7-2.4,7.4-3.5,11.1c-1.2,3.7-2.4,7.4-3.5,11.1c-2.3,0.3-4.5,0.6-6.8,0.9
			c-2.3,0.3-4.5,0.6-6.8,1c-2.3,0.3-4.5,0.6-6.8,1c-2.3,0.3-4.5,0.6-6.8,1c5.9-20.7,11.9-41.4,17.8-62.1
			c5.9-20.7,11.8-41.4,17.8-62.2c5.9-20.7,11.8-41.5,17.7-62.3C64.2,234.4,70.1,213.7,76,192.9z M53.3,369.6c3.4-0.5,6.8-1,10.2-1.4
			c3.4-0.5,6.8-1,10.2-1.4c3.4-0.5,6.8-0.9,10.2-1.4c3.4-0.5,6.8-0.9,10.2-1.4c-1.6-7.1-3.2-14.3-4.8-21.4
			c-1.6-7.1-3.2-14.2-4.8-21.3c-1.6-7.1-3.2-14.2-4.8-21.2c-1.6-7.1-3.2-14.1-4.8-21.2c-1.8,7.6-3.6,15.1-5.4,22.7
			c-1.8,7.6-3.6,15.1-5.4,22.7c-1.8,7.6-3.6,15.1-5.4,22.7C56.9,354.5,55.1,362.1,53.3,369.6"/>
	</g>
	<g>
		<path class="st0" d="M562.1,178.9c0,18.6,0,37.3,0,55.9c0,18.7,0,37.4,0,56.1c0,18.8,0,37.5,0,56.3c0,18.8,0,37.7,0,56.5
			c-6.3-11.3-12.6-22.5-18.9-33.6c-6.3-11.1-12.6-22.2-18.8-33.2c-6.3-11-12.5-22-18.8-32.9c-6.3-10.9-12.5-21.7-18.8-32.5
			c0,11,0,21.9-0.1,32.9c0,11,0,22-0.1,33c0,11,0,22-0.1,33c0,11,0,22.1-0.1,33.1c-2.1,0-4.2,0.1-6.3,0.1c-2.1,0-4.2,0.1-6.3,0.1
			c-2.1,0-4.2,0.1-6.3,0.1s-4.2,0.1-6.3,0.1c-6.1,0.1-12.2,0.2-18.4,0.4c-6.1,0.1-12.2,0.3-18.4,0.5c-6.1,0.2-12.2,0.4-18.4,0.6
			c-6.1,0.2-12.2,0.4-18.4,0.7c0.1-18.2,0.2-36.5,0.2-54.7c0.1-18.2,0.2-36.4,0.2-54.5c0.1-18.1,0.2-36.2,0.2-54.3
			c0.1-18.1,0.2-36.1,0.2-54.2c-5.8,22.4-11.6,44.8-17.4,67.1c-5.8,22.4-11.7,44.8-17.5,67.1c-5.9,22.4-11.7,44.7-17.6,67
			c-5.9,22.4-11.8,44.7-17.6,67c-3.5-13.5-7-26.9-10.6-40.3c-3.5-13.4-7-26.7-10.5-40c-3.5-13.3-7-26.5-10.5-39.7
			c-3.5-13.2-7-26.3-10.5-39.4c-0.9-3.3-1.8-6.6-2.6-9.9c-0.9-3.3-1.8-6.6-2.6-9.9c-0.9-3.3-1.8-6.6-2.6-9.9
			c-0.9-3.3-1.8-6.6-2.6-9.8c-1.3-4.7-2.5-9.5-3.8-14.2c-1.3-4.7-2.5-9.4-3.8-14.1c-1.3-4.7-2.5-9.4-3.8-14.1
			c-1.3-4.7-2.5-9.4-3.8-14.1c2.3-0.3,4.5-0.5,6.8-0.8c2.3-0.3,4.5-0.5,6.8-0.8c2.3-0.2,4.5-0.5,6.8-0.7c2.3-0.2,4.5-0.5,6.8-0.7
			c3.4,14.2,6.8,28.4,10.3,42.7c3.4,14.3,6.9,28.6,10.3,43c3.4,14.4,6.9,28.8,10.3,43.3c3.5,14.5,6.9,29,10.4,43.6
			c3.6-15,7.1-30.1,10.7-45.2c3.6-15,7.1-30.1,10.7-45.2c3.5-15.1,7.1-30.1,10.6-45.2c3.5-15.1,7.1-30.1,10.6-45.2
			c2.3-0.2,4.5-0.4,6.8-0.6c2.2-0.2,4.5-0.4,6.7-0.6c2.2-0.2,4.5-0.4,6.7-0.5c2.2-0.2,4.5-0.3,6.8-0.5c4.6-0.4,9.2-0.8,13.8-1.1
			c4.6-0.4,9.2-0.7,13.8-1c4.6-0.3,9.2-0.6,13.7-1c4.6-0.3,9.2-0.6,13.8-0.9c0,2.1,0,4.3,0,6.4c0,2.1,0,4.3,0,6.4c0,2.1,0,4.3,0,6.4
			c0,2.1,0,4.3,0,6.4c-2.5,0.1-5,0.3-7.5,0.4c-2.5,0.2-5,0.3-7.5,0.5c-2.5,0.2-5,0.3-7.5,0.5c-2.5,0.2-5,0.3-7.5,0.5
			c0,7.7-0.1,15.4-0.1,23.1c0,7.7-0.1,15.4-0.1,23.1c0,7.7-0.1,15.4-0.1,23.2c0,7.7,0,15.5-0.1,23.2c2.9-0.2,5.8-0.3,8.8-0.4
			c2.9-0.1,5.8-0.3,8.8-0.4c2.9-0.1,5.8-0.3,8.8-0.4c2.9-0.1,5.8-0.2,8.8-0.4c0,2.2,0,4.3,0,6.5c0,2.2,0,4.3,0,6.5
			c0,2.2,0,4.3,0,6.5c0,2.2,0,4.3,0,6.5c-2.9,0.1-5.8,0.2-8.8,0.3c-2.9,0.1-5.8,0.2-8.8,0.4c-2.9,0.1-5.8,0.2-8.8,0.4
			c-2.9,0.1-5.8,0.3-8.8,0.4c0,4.1,0,8.2,0,12.3c0,4.1,0,8.2,0,12.3c0,4.1,0,8.2,0,12.3c0,4.1,0,8.2,0,12.3c4-0.2,8.1-0.3,12.1-0.4
			c4-0.1,8.1-0.3,12.1-0.4c4-0.1,8.1-0.2,12.1-0.4c4-0.1,8.1-0.2,12.1-0.3c0-16.3,0.1-32.6,0.1-48.9c0-16.3,0.1-32.5,0.1-48.7
			c0-16.2,0.1-32.4,0.1-48.6c0-16.2,0.1-32.3,0.1-48.4c6.2,10.5,12.4,21.1,18.7,31.8c6.2,10.7,12.5,21.4,18.7,32.1
			c6.2,10.8,12.5,21.6,18.8,32.5c6.3,10.9,12.5,21.9,18.8,32.9c0-11.1,0-22.2,0-33.3c0-11.1,0-22.2,0-33.2c0-11.1,0-22.1,0-33.2
			c0-11,0-22.1,0-33.1c2.1-0.1,4.1-0.2,6.2-0.2s4.1-0.1,6.2-0.2c2.1-0.1,4.1-0.1,6.2-0.2S560,178.9,562.1,178.9z"/>
	</g>
	<g>
		<path class="st0" d="M283.7,427.3c0.5,1.8,1,3.5,1.5,5.3c0.5,1.8,1,3.5,1.5,5.3c0.5,1.8,1,3.5,1.5,5.3c0.5,1.8,1,3.5,1.5,5.3
			c-23.8,1.5-47.6,3.2-71.4,5.1c-23.8,1.9-47.6,4.1-71.4,6.5c-23.8,2.4-47.5,5-71.3,7.9c-23.8,2.9-47.5,6-71.2,9.3
			c0-1.7,0-3.4,0.1-5.1c0-1.7,0-3.4,0.1-5.1c0-1.7,0.1-3.4,0.1-5.1c0-1.7,0.1-3.4,0.1-5.1c23.2-3.3,46.4-6.4,69.6-9.3
			c23.2-2.9,46.5-5.6,69.7-8c23.2-2.4,46.5-4.7,69.8-6.7C237.2,430.7,260.4,428.9,283.7,427.3z"/>
	</g>
</g>
</svg>
