<?xml version="1.0" encoding="utf-8"?>
<!-- Generator: Adobe Illustrator 25.2.0, SVG Export Plug-In . SVG Version: 6.00 Build 0)  -->
<svg version="1.1" id="Layer_1" xmlns="http://www.w3.org/2000/svg" xmlns:xlink="http://www.w3.org/1999/xlink" x="0px" y="0px"
	 viewBox="0 0 1003 487" style="enable-background:new 0 0 1003 487;" xml:space="preserve">
<style type="text/css">
	.st0{fill:#FFFFFF;}
</style>
<g>
	<g>
		<path class="st0" d="M911,160.8c0,0,9.8-2.4,34.7,28.6l38.9-35.7h-15.8h-110l6.8,7.1H911z"/>
		<path class="st0" d="M614.4,245.2l1.1-8.2l0.1-0.2L497.6,66.4l-2.4-5.7c-14.8,14.7,5,51.9,5,51.9l110.8,159.2l44.9,23.4
			l-33.8-48.9L614.4,245.2z"/>
		<polygon class="st0" points="653.8,222.4 647.1,213.4 646.1,221.2 		"/>
		<polygon class="st0" points="614.4,245.2 646.1,221.2 647.1,213.4 615.6,236.9 615.5,237.1 		"/>
		<path class="st0" d="M535.3,286.5l-1.9,5.7c0,0,21.6,0.7,52.8-25.6l-7.8-1.8l0,0l0.1,0.1C578.4,265,555.8,284.7,535.3,286.5z"/>
		<path class="st0" d="M567.6,76.8l7.8,0.4l-0.5-0.5c-4-4.2-7.5-8.2-10.7-12c-3.2-3.9-6.7-7.2-10.4-10c-3.7-2.8-7.8-5-12.4-6.7
			c-4.6-1.7-10.3-2.5-16.9-2.5c-7.4,0-14.2,1.4-20.6,4.2c-5.3,2.4-10.1,5.4-14.2,9.1l5.7,2.1C495.2,60.8,533.1,29.4,567.6,76.8z"/>
		<path class="st0" d="M462.3,181l-6.5-0.3c2.6,50.7,33.1,94.6,77.5,111.6l1.9-5.7L462.3,181z"/>
		<path class="st0" d="M498.6,140.3l0.1,0l0-0.2l-8.2-1.3l-0.1-0.1l-13.6,9.5c-10.9,7.8-19.9,18.2-26,30.3l5,2.1
			C455.8,180.7,464.4,159.1,498.6,140.3z"/>
		<polygon class="st0" points="454.1,25.7 454.1,9 445.9,17.2 		"/>
		<path class="st0" d="M303.9,25.6c0,0,7.9-8.4,16.4-8.4h125.6l8.2-8.3H307.8h-65.4l38.4,39.8L303.9,25.6z"/>
		<path class="st0" d="M320.8,124.1h-0.2V25.7l-6.5-7.2c-5.8,2.4-10.3,7.1-10.3,7.1l-23.1,23.1v244.6l39.9,38.1V140.9h0.2l-8.2-8.5
			L320.8,124.1z"/>
		<polygon class="st0" points="435.3,140.9 435.3,124.1 427.1,132.4 		"/>
		<polygon class="st0" points="312.7,132.4 427.1,132.4 435.3,124.1 320.8,124.1 		"/>
		<polygon class="st0" points="116.3,9 155.5,48.7 195,9 180.2,9 		"/>
		<path class="st0" d="M53.5,311.4c42.4,26.4,71.1,10.4,71.1,10.4l-8.3-4.2c-4.6,0.8-9.3,1.3-14,1.3c-10.6,0-20.6-2-30.1-6.1
			c-9.5-4.1-17.8-9.6-24.7-16.5c-6.9-6.9-12.4-15.2-16.5-24.7c-4.1-9.5-6.1-19.6-6.1-30.1v-1l-7.6,7.2
			C20.5,288.9,53.5,311.4,53.5,311.4z"/>
		<polygon class="st0" points="24.8,240.5 10,240.5 17.2,247.7 		"/>
		<path class="st0" d="M792.3,14.5"/>
		<polygon class="st0" points="921.8,61.6 931.7,49.2 920.5,49.2 		"/>
		<polygon class="st0" points="566.9,84.1 575.3,77.2 567.6,76.8 		"/>
		<path class="st0" d="M455.8,180.6l6.5,0.3c5.2-9.3,12.4-17.3,21.1-23.5l14.1-9.5l0.2,0.3l1-8l-0.1,0
			C464.5,159.1,455.8,180.6,455.8,180.6z"/>
		<path class="st0" d="M445.9,17.2H320.3c-2.1,0-4.2,0.5-6.2,1.3l6.4,7.1c0.1,0,0.1,0,0,0l0.1,0.1h133.5L445.9,17.2z"/>
		<polygon class="st0" points="312.7,132.4 320.8,140.9 435.3,140.9 427.1,132.4 		"/>
		<polygon class="st0" points="242.4,331.4 320.6,331.4 280.8,293.4 		"/>
		<polygon class="st0" points="280.8,48.7 242.4,9 242.4,331.4 280.8,293.4 		"/>
		<path class="st0" d="M155.5,253.4V48.7L116.3,9v308.6l8.3,4.2C150,294.6,155.5,253.4,155.5,253.4z"/>
		<path class="st0" d="M155.5,48.7v204.7c0,0-5.4,41.2-30.9,68.4c0,0-28.8,16-71.1-10.4c0,0-32.9-22.5-36.3-63.8l-7.2-7.2v1
			c0,12.7,2.4,24.7,7.2,35.9c4.8,11.3,11.4,21.1,19.7,29.4c8.3,8.3,18.2,14.9,29.4,19.7c11.3,4.8,23.3,7.2,35.9,7.2
			c13,0,25.1-2.4,36.4-7.2c11.3-4.8,21.1-11.4,29.4-19.7c8.3-8.3,14.9-18.1,19.7-29.2c4.8-11.1,7.2-23.2,7.2-36.2V9L155.5,48.7z"/>
		<path class="st0" d="M911,160.8h-45.4l-6.8,7.7h51.9l-0.4,118.7c-24.1,20.3-53.9,32.1-86.2,32.1c-31.8,0-61.2-11.6-85.1-31.3V50.1
			c24-19.7,53.4-31.3,85.1-31.3c37.2,0,71.1,15.8,96.9,42l0.8,0.8l-1.3-12.4h-0.2c0,0-35.9-38.4-95.1-38.4c-62.2,0-94.6,38-94.6,38
			s-67.1,112.2,0,242.7c44.8,39.7,94.6,35.9,94.6,35.9c55,0,91.6-35.9,91.6-35.9c26.4-48.9,28.8-102,28.8-102
			C920.7,158.5,911,160.8,911,160.8z"/>
		<path class="st0" d="M984.6,154.7v-1l-38.9,35.7c0,0-2.5,53.2-28.8,102c0,0-36.6,35.9-91.6,35.9c0,0-49.9,3.9-94.6-35.9
			c-67.1-130.5,0-242.7,0-242.7s32.4-38,94.6-38c59.1,0,95.1,38.4,95.1,38.4h0.2h11.2l-0.6-0.6C902.8,20.3,865.3,3,824.1,3
			c0,0-0.1,0-0.1,0c-38.8,0-74.4,15.4-102,40.8c-4.1,3.8-8,7.8-11.7,11.9c-0.9,1-1.8,1.9-2.7,3c-7.1,7.5-13.4,15.6-18.9,23.8l0.1,0
			c-16,25.1-25.3,54.9-25.3,86.9c0,35.3,11.4,68,30.5,94.6c1.7,2.2,3.6,4.6,5.9,7.2c4.3,5.2,8.9,10.2,13.8,15l1.7,1.6v-0.1
			c28.5,29.3,66.7,47.4,108.8,47.4h0.1c34.6,0,66.6-12.3,92.7-32.9v0c7.5-6,14.6-12.6,21.1-19.9c29-32.5,46.7-77.1,46.7-126.3
			C984.6,155.6,984.6,155.2,984.6,154.7z"/>
		<polygon class="st0" points="858.8,153.8 858.8,168.6 865.6,160.8 		"/>
		<polygon class="st0" points="599.3,295.3 655.9,295.3 611.1,271.9 		"/>
		<polygon class="st0" points="614.4,245.2 622.2,246.4 622,246.2 653.8,222.4 646.1,221.2 		"/>
		<path class="st0" d="M500.2,112.7c0,0-19.8-37.2-5-51.9l-5.7-2.1c-0.8,0.7-1.6,1.4-2.3,2.2c-4.7,4.7-8.4,10.2-11,16.6
			c-2.7,6.4-4,13.1-4,20.3c0,9.6,2.5,18.5,7.4,26.8l0.6-0.4l-0.6,0.4c0,0,3.8,5.5,9.3,12.3c0.6,0.7,1.1,1.3,1.6,2l0,0l0.1,0.1
			l8.2,1.3l0,0.2l-1,8l80.6,116.6l0,0l7.8,1.8l-1.5,7.4l14.7,21.2l11.8-23.4L500.2,112.7z"/>
		<path class="st0" d="M533.3,292.2c-44.4-17-75-60.9-77.5-111.6l-5-2.1c-5.7,11.2-8.9,23.9-8.9,37.3c0,45.7,37,82.7,82.7,82.7h0
			c20.7,0,39.7-7.6,54.2-20.2l5.7-4.3l1.5-7.4C554.9,292.9,533.3,292.2,533.3,292.2z"/>
		<path class="st0" d="M495.2,60.8l2.4,5.7c3.4-2.9,7.2-5.3,11.5-7.1c5.2-2.2,10.7-3.2,16.6-3.2c4.1,0,8.1,0.8,12.1,2.4
			c4,1.6,7.7,3.7,11.1,6.3c3.4,2.6,6.5,5.6,9.5,8.8c2.9,3.3,5.6,6.6,8.1,9.8l0.4,0.6l0.7-7.3C533.1,29.4,495.2,60.8,495.2,60.8z"/>
		<g>
			<rect x="10.1" y="380.9" class="st0" width="978.9" height="5"/>
			<rect x="10.1" y="479" class="st0" width="978.9" height="5"/>
		</g>
		<g>
			<rect x="103.2" y="430" class="st0" width="164.2" height="5"/>
			<rect x="734.8" y="430" class="st0" width="161.1" height="5"/>
		</g>
		<g>
			<path class="st0" d="M319.4,406.7H332c13.8,0,21.4,7.4,21.4,19c0,11.5-7.7,19-21.4,19h-4.8v11.9h-7.8V406.7z M331.7,437.9
				c9.8,0,13.8-4.6,13.8-12.2s-4-12.2-13.8-12.2h-4.5v24.4H331.7z"/>
			<path class="st0" d="M368.7,406.7h7.7v49.9h-7.7V406.7z"/>
			<path class="st0" d="M391.9,431.6c0-14.9,11.5-25.5,25.6-25.5c9,0,15.6,3.3,20,9.9l-5.9,4.3c-2.8-4.3-7.5-7.2-14-7.2
				c-10.4,0-17.7,7.9-17.7,18.6c0,10.6,7.3,18.6,17.7,18.6c6.9,0,11.5-3.1,14.8-7.9l5.9,4.2c-4.3,6.6-11.4,10.6-20.7,10.6
				C403.3,457.2,391.9,446.5,391.9,431.6z"/>
			<path class="st0" d="M463.3,413.5h-14.8v-6.8h37.4v6.8H471v43.1h-7.7V413.5z"/>
			<path class="st0" d="M499.4,439v-32.4h7.8v31.9c0,8.1,4,11.7,11.2,11.7c7.3,0,11.3-3.6,11.3-11.7v-31.9h7.7V439
				c0,12.1-8.2,18.2-19,18.2C507.6,457.2,499.4,451.1,499.4,439z"/>
			<path class="st0" d="M589.3,456.6h-9l-9-13.1c-1.4,0.1-2.8,0.3-4.2,0.3h-4.7v12.8h-7.8v-49.9h12.5c13.8,0,21.5,7.2,21.5,18.6
				c0,7.7-3.5,13-10,15.9L589.3,456.6z M566.9,437.1c9.9,0,13.9-4.3,13.9-11.7c0-7.5-4.1-11.8-13.9-11.8h-4.4v23.6H566.9z"/>
			<path class="st0" d="M604.7,406.7h31.7v6.8h-23.9v19.4h21.2v6.7h-21.2v10.2h25v6.8h-32.7V406.7z"/>
			<path class="st0" d="M649.2,446.9l6.4-3.5c2.4,3.9,5.4,7,11.5,7c5.1,0,8.7-2.7,8.7-6.8c0-4.3-2.9-6.2-8.4-8.7l-3.3-1.5
				c-7.3-3.2-11.7-6.9-11.7-14.6c0-7.4,5.7-12.7,14-12.7c6.6,0,11.1,2.5,14.1,7.9l-6.1,3.7c-1.9-3.3-4.1-4.8-8-4.8
				c-4,0-6.5,2.4-6.5,5.8c0,3.7,2.1,5.4,7.2,7.6l3.2,1.5c8.5,3.7,13.1,7.7,13.1,15.7c0,8.7-6.8,13.8-16.2,13.8
				C657.7,457.2,651.9,452.5,649.2,446.9z"/>
		</g>
	</g>
</g>
</svg>
